# xmcd
#
# Track frame offsets:
#	150
#	16885
#	33910
#	49210
#	68550
#	84450
#	98775
#	112510
#	131106
#	149335
#	165750
#
# Disc length: 2477 seconds
#
# Revision: 0
# Processed by: cddbd v1.5.2PL0 Copyright (c) Steve Scherf et al.
# Submitted via: audiograbber 1.83.01
#
DISCID=7e09ab0b
DTITLE=Delisse - Gritarlo Al Cielo
DYEAR=2002
DGENRE=Pop Rock
TTITLE0=Un Rincón Escondido
TTITLE1=Fue Un Día Lunes
TTITLE2=Esa Frialdad
TTITLE3=Creo Que Muero
TTITLE4=Gritarlo Al Cielo
TTITLE5=Tú Serás
TTITLE6=Dime Cuánto Tiempo
TTITLE7=Dónde Está Todo Eso
TTITLE8=Para Ti
TTITLE9=Si Estuvieras Aquí
TTITLE10=Un Rincón Escondido
EXTD=http://www.selloazul.cl/
EXTT0=
EXTT1=
EXTT2=
EXTT3=
EXTT4=
EXTT5=
EXTT6=
EXTT7=
EXTT8=
EXTT9=
EXTT10=
PLAYORDER=
